<svg xmlns="http://www.w3.org/2000/svg" xmlns:xlink="http://www.w3.org/1999/xlink" width="80" zoomAndPan="magnify" viewBox="0 0 60 60" height="80" preserveAspectRatio="xMidYMid meet" version="1.0"><path fill="#000000" d="M 26.519531 2.515625 C 13.160156 3.996094 2.277344 14.78125 0.664062 28.125 C 0.558594 28.960938 0.492188 29.800781 0.460938 30.648438 C 0.425781 31.492188 0.429688 32.335938 0.472656 33.179688 C 0.511719 34.023438 0.585938 34.863281 0.699219 35.699219 C 0.8125 36.535156 0.960938 37.367188 1.144531 38.191406 C 1.328125 39.015625 1.546875 39.832031 1.796875 40.636719 C 2.050781 41.441406 2.339844 42.238281 2.660156 43.019531 C 2.980469 43.796875 3.335938 44.566406 3.722656 45.316406 C 4.109375 46.066406 4.527344 46.800781 4.976562 47.515625 C 5.425781 48.230469 5.90625 48.921875 6.417969 49.597656 C 6.925781 50.269531 7.460938 50.921875 8.027344 51.546875 C 8.59375 52.175781 9.183594 52.777344 9.800781 53.355469 C 10.417969 53.933594 11.058594 54.480469 11.71875 55.003906 C 12.382812 55.527344 13.070312 56.019531 13.773438 56.480469 C 14.480469 56.945312 15.207031 57.378906 15.949219 57.777344 C 16.691406 58.179688 17.449219 58.546875 18.226562 58.882812 C 19 59.21875 19.789062 59.523438 20.585938 59.789062 C 22.0625 60.027344 22.535156 59.113281 22.535156 58.316406 L 22.535156 53.335938 C 14.375 55.109375 12.636719 49.386719 12.636719 49.386719 C 11.285156 45.96875 9.367188 45.054688 9.367188 45.054688 C 6.683594 43.226562 9.574219 43.289062 9.574219 43.289062 C 12.519531 43.496094 14.082031 46.324219 14.082031 46.324219 C 16.644531 50.804688 20.972656 49.476562 22.652344 48.769531 C 22.917969 46.855469 23.695312 45.554688 24.507812 44.820312 C 17.957031 44.082031 11.105469 41.546875 11.105469 30.320312 C 11.105469 27.050781 12.222656 24.429688 14.136719 22.335938 C 13.84375 21.597656 12.8125 18.535156 14.433594 14.554688 C 14.433594 14.554688 16.90625 13.757812 22.535156 17.5625 C 24.945312 16.914062 27.398438 16.589844 29.898438 16.589844 C 32.394531 16.589844 34.847656 16.914062 37.261719 17.5625 C 42.890625 13.757812 45.363281 14.554688 45.363281 14.554688 C 46.980469 18.535156 45.949219 21.597656 45.65625 22.335938 C 47.570312 24.421875 48.691406 27.050781 48.691406 30.320312 C 48.691406 41.578125 41.796875 44.054688 35.230469 44.789062 C 36.289062 45.703125 37.261719 47.503906 37.261719 50.242188 L 37.261719 58.316406 C 37.261719 59.113281 37.730469 60.054688 39.234375 59.789062 C 40.089844 59.503906 40.929688 59.179688 41.753906 58.816406 C 42.578125 58.453125 43.386719 58.050781 44.171875 57.613281 C 44.960938 57.175781 45.726562 56.703125 46.472656 56.195312 C 47.214844 55.6875 47.9375 55.148438 48.632812 54.574219 C 49.328125 54 49.992188 53.398438 50.632812 52.761719 C 51.273438 52.125 51.882812 51.464844 52.460938 50.773438 C 53.039062 50.082031 53.585938 49.367188 54.101562 48.625 C 54.613281 47.882812 55.09375 47.121094 55.535156 46.335938 C 55.980469 45.550781 56.386719 44.75 56.753906 43.925781 C 57.125 43.105469 57.457031 42.265625 57.75 41.414062 C 58.042969 40.5625 58.296875 39.695312 58.511719 38.820312 C 58.722656 37.945312 58.898438 37.0625 59.03125 36.171875 C 59.164062 35.277344 59.253906 34.382812 59.304688 33.484375 C 59.355469 32.582031 59.367188 31.683594 59.332031 30.78125 C 59.300781 29.878906 59.230469 28.980469 59.113281 28.089844 C 59 27.195312 58.847656 26.304688 58.652344 25.425781 C 58.457031 24.546875 58.21875 23.675781 57.945312 22.820312 C 57.671875 21.960938 57.355469 21.117188 57.003906 20.285156 C 56.652344 19.457031 56.261719 18.644531 55.835938 17.851562 C 55.410156 17.054688 54.945312 16.285156 54.449219 15.53125 C 53.949219 14.78125 53.417969 14.054688 52.855469 13.351562 C 52.292969 12.648438 51.695312 11.972656 51.070312 11.324219 C 50.445312 10.675781 49.789062 10.058594 49.105469 9.46875 C 48.421875 8.878906 47.714844 8.324219 46.980469 7.800781 C 46.246094 7.277344 45.492188 6.789062 44.710938 6.335938 C 43.933594 5.882812 43.136719 5.464844 42.320312 5.082031 C 41.503906 4.703125 40.671875 4.359375 39.820312 4.054688 C 38.972656 3.75 38.113281 3.488281 37.242188 3.261719 C 36.367188 3.035156 35.488281 2.851562 34.597656 2.707031 C 33.707031 2.5625 32.8125 2.457031 31.914062 2.394531 C 31.015625 2.332031 30.117188 2.3125 29.214844 2.332031 C 28.3125 2.351562 27.417969 2.410156 26.519531 2.515625 Z M 26.519531 2.515625 " fill-opacity="1" fill-rule="nonzero"/></svg>