<svg xmlns="http://www.w3.org/2000/svg" xmlns:xlink="http://www.w3.org/1999/xlink" width="80" zoomAndPan="magnify" viewBox="0 0 60 60" height="80" preserveAspectRatio="xMidYMid meet" version="1.0"><defs><clipPath id="dc13687f1f"><path d="M 37 41 L 55.125 41 L 55.125 60 L 37 60 Z M 37 41 " clip-rule="nonzero"/></clipPath></defs><path fill="#263238" d="M 45.945312 26.941406 C 45.054688 25.664062 40.882812 19.367188 40.148438 16.308594 C 39.019531 11.640625 40.003906 11.441406 39.503906 8.902344 C 39.085938 6.792969 38.214844 5.359375 37.410156 4.230469 C 36.441406 3.101562 35.855469 2.617188 35.148438 2.1875 C 33.699219 1.382812 29.839844 0.203125 25.652344 2.460938 C 21.304688 4.714844 21.785156 9.546875 22.589844 19.371094 C 22.863281 22.46875 17.117188 28.550781 16.308594 30.320312 C 14.378906 34.027344 12.941406 37.964844 13.089844 40.46875 C 13.40625 47.421875 15.972656 56.519531 24.039062 56.089844 C 24.683594 55.929688 27.421875 55.929688 29.839844 55.929688 C 33.222656 55.769531 35.152344 55.609375 37.890625 56.253906 C 42.5 56.726562 48.871094 51.03125 50.132812 40.308594 C 50.761719 35.652344 48.523438 30.644531 45.945312 26.941406 Z M 45.945312 26.941406 " fill-opacity="1" fill-rule="nonzero"/><path fill="#eceff1" d="M 24.070312 19.613281 C 24.070312 19.613281 24.6875 24.394531 20.910156 29.636719 C 17.128906 34.878906 16.820312 40.96875 18.054688 44.285156 C 19.289062 47.601562 28.308594 59.78125 40.03125 47.753906 C 41.957031 45.75 43.578125 36.574219 40.339844 30.332031 C 37.097656 24.085938 35.558594 19.152344 35.25 17.609375 C 34.941406 16.066406 24.070312 19.613281 24.070312 19.613281 Z M 24.070312 19.613281 " fill-opacity="1" fill-rule="nonzero"/><path fill="#263238" d="M 42.136719 31.875 C 42.136719 31.875 40.710938 21.515625 45.273438 26.65625 C 51.980469 34.210938 46.585938 39.816406 45.632812 40.816406 C 44.453125 42.058594 41.316406 42.832031 42.753906 39.199219 C 43.730469 36.730469 44.425781 34.03125 42.136719 31.875 Z M 42.136719 31.875 " fill-opacity="1" fill-rule="nonzero"/><path fill="#eceff1" d="M 40.492188 28.480469 C 40.492188 28.480469 48.203125 33.261719 42.113281 40.609375 C 40.339844 42.769531 42.214844 43.644531 43.449219 42.410156 C 44.683594 41.175781 49.460938 32.59375 40.492188 28.480469 Z M 40.492188 28.480469 " fill-opacity="1" fill-rule="nonzero"/><path fill="#263238" d="M 18.574219 32.953125 C 18.574219 32.953125 23.488281 21.730469 18.800781 26.757812 C 15.613281 30.175781 14.351562 36.9375 14.6875 39.558594 C 14.90625 41.253906 17.160156 43.5625 17.363281 39.660156 C 17.566406 35.652344 18.082031 34.570312 18.574219 32.953125 Z M 18.574219 32.953125 " fill-opacity="1" fill-rule="nonzero"/><path fill="#eceff1" d="M 17.492188 38.964844 C 17.492188 38.964844 16.050781 36.191406 18.726562 30 C 14.816406 35.804688 15.5625 39.867188 17.308594 40.996094 C 19.039062 42.113281 18.3125 39.890625 17.492188 38.964844 Z M 17.492188 38.964844 " fill-opacity="1" fill-rule="nonzero"/><g clip-path="url(#dc13687f1f)"><path fill="#ffc107" d="M 53.996094 49.003906 C 53.351562 48.683594 52.226562 48.199219 51.257812 46.75 C 50.777344 45.945312 50.9375 43.691406 50.132812 42.722656 C 49.648438 42.078125 49.003906 42.402344 48.84375 42.402344 C 47.394531 42.722656 44.011719 44.976562 41.757812 42.402344 C 41.433594 42.078125 40.953125 41.597656 40.148438 41.597656 C 39.339844 41.597656 39.019531 41.917969 38.695312 42.5625 C 38.375 43.207031 38.375 43.691406 38.375 45.300781 C 38.375 46.589844 38.375 48.039062 38.214844 49.164062 C 37.890625 51.902344 37.410156 53.515625 37.410156 55.125 C 37.410156 56.898438 37.890625 58.023438 38.535156 58.507812 C 39.019531 58.992188 39.824219 59.3125 41.597656 59.3125 C 43.367188 59.3125 44.496094 58.667969 45.621094 57.539062 C 46.429688 56.734375 47.070312 56.414062 49.328125 54.804688 C 51.097656 53.675781 53.835938 52.226562 54.320312 51.742188 C 54.640625 51.421875 55.125 51.257812 55.125 50.292969 C 55.125 49.488281 54.480469 49.164062 53.996094 49.003906 Z M 53.996094 49.003906 " fill-opacity="1" fill-rule="nonzero"/></g><path fill="#ffc107" d="M 21.625 49.488281 C 20.015625 46.910156 19.851562 46.429688 18.726562 44.816406 C 17.757812 43.207031 15.664062 40.148438 14.378906 40.148438 C 13.410156 40.148438 12.929688 40.628906 12.285156 41.273438 C 11.640625 41.917969 10.996094 43.367188 9.867188 44.171875 C 8.902344 44.976562 6.164062 44.816406 5.519531 45.785156 C 4.875 46.75 6.164062 48.199219 6.164062 50.617188 C 6.164062 51.582031 5.359375 52.226562 5.195312 52.871094 C 5.035156 53.675781 4.875 54.160156 5.195312 54.804688 C 5.839844 55.769531 6.648438 56.089844 12.121094 57.21875 C 15.023438 57.863281 17.757812 59.472656 19.53125 59.632812 C 21.304688 59.796875 24.363281 59.632812 24.363281 55.285156 C 24.523438 52.710938 23.074219 52.066406 21.625 49.488281 Z M 21.625 49.488281 " fill-opacity="1" fill-rule="nonzero"/><path fill="#eceff1" d="M 25.492188 9.867188 C 24.335938 9.867188 23.398438 11.308594 23.394531 13.085938 C 23.394531 14.867188 24.332031 16.308594 25.488281 16.308594 C 25.488281 16.308594 25.488281 16.308594 25.492188 16.308594 C 26.648438 16.3125 27.585938 14.871094 27.585938 13.089844 C 27.585938 11.3125 26.648438 9.867188 25.492188 9.867188 Z M 32.738281 9.222656 C 31.226562 9.222656 30 10.882812 30 12.929688 C 30 14.972656 31.226562 16.632812 32.738281 16.632812 C 34.25 16.632812 35.476562 14.972656 35.476562 12.929688 C 35.476562 10.882812 34.25 9.222656 32.738281 9.222656 Z M 32.738281 9.222656 " fill-opacity="1" fill-rule="nonzero"/><path fill="#212121" d="M 26.6875 13.257812 C 26.71875 13.511719 26.71875 13.761719 26.695312 14.003906 C 26.667969 14.246094 26.613281 14.464844 26.53125 14.65625 C 26.449219 14.847656 26.34375 15.003906 26.21875 15.117188 C 26.09375 15.230469 25.957031 15.300781 25.808594 15.316406 C 25.660156 15.335938 25.511719 15.304688 25.363281 15.226562 C 25.214844 15.144531 25.074219 15.023438 24.949219 14.855469 C 24.820312 14.691406 24.714844 14.492188 24.625 14.265625 C 24.539062 14.035156 24.480469 13.796875 24.449219 13.542969 C 24.417969 13.289062 24.414062 13.039062 24.441406 12.796875 C 24.46875 12.554688 24.523438 12.335938 24.605469 12.144531 C 24.6875 11.953125 24.789062 11.796875 24.914062 11.683594 C 25.039062 11.566406 25.175781 11.5 25.324219 11.484375 C 25.472656 11.464844 25.621094 11.496094 25.769531 11.574219 C 25.921875 11.65625 26.058594 11.777344 26.1875 11.945312 C 26.3125 12.109375 26.421875 12.308594 26.507812 12.535156 C 26.59375 12.761719 26.652344 13.003906 26.6875 13.257812 Z M 26.6875 13.257812 " fill-opacity="1" fill-rule="nonzero"/><path fill="#212121" d="M 32.601562 11.425781 C 31.714844 11.425781 30.992188 12.363281 30.992188 13.519531 C 30.988281 14.675781 31.710938 15.613281 32.597656 15.613281 C 32.597656 15.613281 32.601562 15.613281 32.601562 15.613281 C 33.488281 15.613281 34.210938 14.679688 34.214844 13.523438 C 34.214844 12.367188 33.492188 11.429688 32.605469 11.425781 C 32.605469 11.425781 32.601562 11.425781 32.601562 11.425781 Z M 32.601562 11.425781 " fill-opacity="1" fill-rule="nonzero"/><path fill="#ffc107" d="M 24.683594 20.335938 C 23.71875 19.691406 22.914062 19.046875 22.914062 18.082031 C 22.914062 17.117188 23.558594 16.792969 24.523438 15.988281 C 24.683594 15.828125 26.457031 14.214844 28.226562 14.214844 C 30 14.214844 32.09375 15.34375 32.898438 15.664062 C 34.347656 15.988281 35.796875 16.308594 35.636719 17.4375 C 35.476562 19.046875 35.316406 19.371094 33.703125 20.175781 C 32.578125 20.496094 30.484375 22.269531 29.035156 22.269531 C 28.390625 22.269531 27.421875 22.269531 26.777344 22.109375 C 26.296875 21.945312 25.492188 21.140625 24.683594 20.335938 Z M 24.683594 20.335938 " fill-opacity="1" fill-rule="nonzero"/><path fill="#634703" d="M 23.75 17.882812 C 23.75 17.882812 25.304688 19.578125 27.453125 19.492188 C 29.601562 19.40625 32.617188 17.722656 33.839844 16.9375 C 34.375 16.664062 34.59375 16.921875 34.085938 17.375 C 33.515625 17.878906 29.890625 19.90625 28.4375 20.101562 C 28.003906 20.160156 26.667969 20.175781 26.289062 20.058594 C 25.914062 19.941406 23.960938 18.878906 23.546875 18.257812 C 23.230469 17.777344 23.679688 17.777344 23.75 17.882812 Z M 23.75 17.882812 " fill-opacity="1" fill-rule="nonzero"/><path fill="#634703" d="M 27.351562 15.703125 C 27.351562 15.703125 27.074219 15.730469 26.894531 15.949219 C 26.710938 16.171875 26.507812 15.820312 26.683594 15.632812 C 26.855469 15.441406 27.042969 15.226562 27.4375 15.34375 C 27.832031 15.457031 27.453125 15.675781 27.351562 15.703125 Z M 27.351562 15.703125 " fill-opacity="1" fill-rule="nonzero"/><path fill="#634703" d="M 29.386719 15.703125 C 29.386719 15.703125 29.664062 15.730469 29.84375 15.949219 C 30.027344 16.171875 30.230469 15.820312 30.054688 15.632812 C 29.882812 15.441406 29.695312 15.226562 29.300781 15.34375 C 28.90625 15.457031 29.285156 15.675781 29.386719 15.703125 Z M 29.386719 15.703125 " fill-opacity="1" fill-rule="nonzero"/></svg>