<svg xmlns="http://www.w3.org/2000/svg" xmlns:xlink="http://www.w3.org/1999/xlink" width="80" zoomAndPan="magnify" viewBox="0 0 60 60" height="80" preserveAspectRatio="xMidYMid meet" version="1.0"><defs><clipPath id="a2f0e889c7"><path d="M 1.914062 5.199219 L 10 5.199219 L 10 35 L 1.914062 35 Z M 1.914062 5.199219 " clip-rule="nonzero"/></clipPath><clipPath id="9419e0daaf"><path d="M 50 23 L 58.164062 23 L 58.164062 45 L 50 45 Z M 50 23 " clip-rule="nonzero"/></clipPath><clipPath id="10f4ef5a47"><path d="M 50 6 L 58.164062 6 L 58.164062 20 L 50 20 Z M 50 6 " clip-rule="nonzero"/></clipPath><clipPath id="f1d63338c9"><path d="M 36 5.199219 L 44 5.199219 L 44 35 L 36 35 Z M 36 5.199219 " clip-rule="nonzero"/></clipPath><clipPath id="5d3c52baa7"><path d="M 1.914062 5.199219 L 23 5.199219 L 23 28 L 1.914062 28 Z M 1.914062 5.199219 " clip-rule="nonzero"/></clipPath><clipPath id="f6b3412f61"><path d="M 22 5.199219 L 44 5.199219 L 44 28 L 22 28 Z M 22 5.199219 " clip-rule="nonzero"/></clipPath><clipPath id="ca2aa69f2d"><path d="M 37 32 L 58.164062 32 L 58.164062 53.949219 L 37 53.949219 Z M 37 32 " clip-rule="nonzero"/></clipPath><clipPath id="83f4eb12cf"><path d="M 22 35 L 38 35 L 38 53.949219 L 22 53.949219 Z M 22 35 " clip-rule="nonzero"/></clipPath></defs><g clip-path="url(#a2f0e889c7)"><path fill="#29b6f6" d="M 1.9375 5.199219 L 9.269531 10.074219 L 9.269531 34.449219 L 1.9375 29.574219 Z M 1.9375 5.199219 " fill-opacity="1" fill-rule="nonzero"/></g><g clip-path="url(#9419e0daaf)"><path fill="#0288d1" d="M 58.136719 23.480469 L 50.804688 28.355469 L 50.804688 44.199219 L 58.136719 39.324219 Z M 58.136719 23.480469 " fill-opacity="1" fill-rule="nonzero"/></g><g clip-path="url(#10f4ef5a47)"><path fill="#0288d1" d="M 58.136719 6.417969 L 50.804688 11.292969 L 50.804688 19.824219 L 58.136719 14.949219 Z M 58.136719 6.417969 " fill-opacity="1" fill-rule="nonzero"/></g><g clip-path="url(#f1d63338c9)"><path fill="#0288d1" d="M 43.476562 5.199219 L 36.144531 10.074219 L 36.144531 34.449219 L 43.476562 29.574219 Z M 43.476562 5.199219 " fill-opacity="1" fill-rule="nonzero"/></g><g clip-path="url(#5d3c52baa7)"><path fill="#29b6f6" d="M 1.9375 13.730469 L 22.707031 27.136719 L 22.707031 18.605469 L 1.9375 5.199219 Z M 1.9375 13.730469 " fill-opacity="1" fill-rule="nonzero"/></g><g clip-path="url(#f6b3412f61)"><path fill="#0288d1" d="M 43.476562 13.730469 L 22.707031 27.136719 L 22.707031 18.605469 L 43.476562 5.199219 Z M 43.476562 13.730469 " fill-opacity="1" fill-rule="nonzero"/></g><path fill="#0288d1" d="M 43.476562 30.792969 L 22.707031 44.199219 L 22.707031 35.667969 L 43.476562 22.261719 Z M 43.476562 30.792969 " fill-opacity="1" fill-rule="nonzero"/><g clip-path="url(#ca2aa69f2d)"><path fill="#0288d1" d="M 58.136719 40.542969 L 37.367188 53.949219 L 37.367188 45.417969 L 58.136719 32.011719 Z M 58.136719 40.542969 " fill-opacity="1" fill-rule="nonzero"/></g><g clip-path="url(#83f4eb12cf)"><path fill="#29b6f6" d="M 37.367188 45.128906 L 22.707031 35.667969 L 22.707031 44.199219 L 37.367188 53.660156 Z M 37.367188 45.128906 " fill-opacity="1" fill-rule="nonzero"/></g></svg>