<svg xmlns="http://www.w3.org/2000/svg" xmlns:xlink="http://www.w3.org/1999/xlink" width="80" zoomAndPan="magnify" viewBox="0 0 60 60" height="80" preserveAspectRatio="xMidYMid meet" version="1.0"><defs><clipPath id="5cd524a560"><path d="M 1.792969 6 L 58 6 L 58 54 L 1.792969 54 Z M 1.792969 6 " clip-rule="nonzero"/></clipPath></defs><g clip-path="url(#5cd524a560)"><path fill="#000000" d="M 55.105469 53.851562 L 4.734375 53.851562 C 4.230469 53.851562 3.757812 53.722656 3.324219 53.46875 C 2.886719 53.214844 2.546875 52.867188 2.296875 52.429688 C 2.050781 51.988281 1.929688 51.515625 1.933594 51.011719 C 1.941406 50.503906 2.074219 50.035156 2.332031 49.601562 L 27.519531 7.511719 C 27.644531 7.304688 27.792969 7.113281 27.964844 6.945312 C 28.140625 6.777344 28.332031 6.632812 28.542969 6.511719 C 28.75 6.394531 28.972656 6.300781 29.207031 6.242188 C 29.441406 6.179688 29.679688 6.148438 29.917969 6.148438 C 30.160156 6.148438 30.398438 6.179688 30.632812 6.242188 C 30.867188 6.300781 31.089844 6.394531 31.296875 6.511719 C 31.507812 6.632812 31.699219 6.777344 31.875 6.945312 C 32.046875 7.113281 32.195312 7.304688 32.320312 7.511719 L 57.507812 49.601562 C 57.765625 50.035156 57.898438 50.503906 57.90625 51.011719 C 57.910156 51.515625 57.789062 51.988281 57.542969 52.429688 C 57.292969 52.867188 56.953125 53.214844 56.515625 53.46875 C 56.082031 53.722656 55.609375 53.851562 55.105469 53.851562 Z M 9.675781 48.238281 L 50.164062 48.238281 L 29.917969 14.40625 Z M 9.675781 48.238281 " fill-opacity="1" fill-rule="nonzero"/></g></svg>